<?xml version="1.0" encoding="utf-8"?>
<!-- Generator: Adobe Illustrator 27.7.0, SVG Export Plug-In . SVG Version: 6.00 Build 0)  -->
<svg version="1.1" id="Ñëîé_1" xmlns="http://www.w3.org/2000/svg" xmlns:xlink="http://www.w3.org/1999/xlink" x="0px" y="0px"
	 viewBox="0 0 400 80.6" style="enable-background:new 0 0 400 80.6;" xml:space="preserve">
<style type="text/css">
	.st0{fill:#1A1A1A;}
	.st1{enable-background:new    ;}
</style>
<g>
	<path class="st0" d="M105.6,2.6l-24.5,76c-0.6,1.9-2.9,2.5-4.4,1.2l-20.3-17l-12,13.2c-1.4,1.6-4.1,0.6-4.1-1.6V50.1
		c0-0.4,0.2-0.8,0.5-1l30.9-25.8c0.1,0,0-0.1-0.1-0.1L30,42.8c-1.2,0.6-2.7,0.6-3.9,0L1.1,31c-1.7-0.9-1.4-3.4,0.4-3.9L103,0.1
		C104.7-0.4,106.1,1.1,105.6,2.6z"/>
	<g class="st1">
		<path d="M129.9,28.1h-8.7v-6.2h25v6.2h-8.9v26.3h-7.4V28.1z"/>
		<path d="M147.2,38.6c0-3.5-0.1-5.7-0.2-7.8h6.3l0.2,4.3h0.2c1.2-3.4,4.1-4.9,6.4-4.9c0.7,0,1,0,1.5,0.1v6.9
			c-0.5-0.1-1.2-0.2-2-0.2c-2.7,0-4.5,1.4-5,3.7c-0.1,0.5-0.1,1.1-0.1,1.6v12h-7.3V38.6z"/>
		<path d="M178.4,54.4L178,52h-0.1c-1.5,1.9-4,2.9-6.8,2.9c-4.8,0-7.6-3.5-7.6-7.2c0-6.1,5.5-9.1,13.8-9v-0.3c0-1.3-0.7-3-4.3-3
			c-2.4,0-5,0.8-6.5,1.8l-1.3-4.7c1.6-0.9,4.9-2.1,9.2-2.1c7.9,0,10.4,4.6,10.4,10.2v8.2c0,2.3,0.1,4.4,0.3,5.7H178.4z M177.6,43.3
			c-3.9,0-6.8,0.9-6.8,3.7c0,1.9,1.3,2.8,2.9,2.8c1.8,0,3.3-1.2,3.8-2.7c0.1-0.4,0.1-0.8,0.1-1.3V43.3z"/>
		<path d="M195.3,30.8l3.2,10.9c0.6,2,1,3.9,1.3,5.7h0.1c0.4-1.9,0.8-3.7,1.3-5.7l3-10.9h7.7l-8.8,23.6H196l-8.6-23.6H195.3z"/>
		<path d="M220.4,45c0.2,3,3.2,4.5,6.7,4.5c2.5,0,4.5-0.3,6.5-1l1,5c-2.4,1-5.4,1.4-8.5,1.4c-8,0-12.6-4.6-12.6-12
			c0-6,3.7-12.6,11.9-12.6c7.6,0,10.5,5.9,10.5,11.8c0,1.3-0.1,2.4-0.2,2.9H220.4z M229,39.9c0-1.8-0.8-4.8-4.1-4.8
			c-3.1,0-4.3,2.8-4.5,4.8H229z"/>
		<path d="M240.2,20.2h7.3v34.2h-7.3V20.2z"/>
		<path d="M263.4,22.3c1.9-0.4,5.8-0.7,9.5-0.7c4.5,0,7.2,0.4,9.6,1.8c2.3,1.2,3.9,3.4,3.9,6.4c0,2.9-1.7,5.6-5.4,6.9v0.1
			c3.7,1,6.5,3.8,6.5,8c0,2.9-1.4,5.3-3.4,6.9c-2.4,1.9-6.3,2.9-12.8,2.9c-3.6,0-6.3-0.2-8-0.5V22.3z M270.7,34.8h2.4
			c3.9,0,5.9-1.6,5.9-4c0-2.5-1.9-3.8-5.2-3.8c-1.6,0-2.5,0.1-3.1,0.2V34.8z M270.7,49.2c0.7,0.1,1.6,0.1,2.8,0.1
			c3.3,0,6.3-1.3,6.3-4.7c0-3.3-2.9-4.6-6.6-4.6h-2.5V49.2z"/>
		<path d="M314.5,46.8c0,3.1,0.1,5.6,0.2,7.6h-6.4l-0.3-3.3h-0.1c-0.9,1.4-3.1,3.9-7.4,3.9c-4.8,0-8.3-3-8.3-10.3V30.8h7.4v12.7
			c0,3.4,1.1,5.5,3.7,5.5c2,0,3.2-1.4,3.7-2.6c0.2-0.4,0.2-1,0.2-1.6v-14h7.4V46.8z"/>
		<path d="M343.3,20.2v27.2c0,2.7,0.1,5.4,0.2,7h-6.5l-0.3-3.5h-0.1c-1.5,2.7-4.3,4-7.4,4c-5.6,0-10.1-4.8-10.1-12.1
			c0-8,4.9-12.5,10.6-12.5c2.9,0,5.2,1,6.2,2.7h0.1V20.2H343.3z M335.9,40.8c0-0.4,0-0.9-0.1-1.3c-0.4-2-2-3.6-4.3-3.6
			c-3.3,0-5.1,3-5.1,6.7c0,4,2,6.5,5,6.5c2.1,0,3.8-1.4,4.2-3.5c0.1-0.5,0.2-1.1,0.2-1.7V40.8z"/>
		<path d="M372,20.2v27.2c0,2.7,0.1,5.4,0.2,7h-6.5l-0.3-3.5h-0.1c-1.5,2.7-4.3,4-7.4,4c-5.6,0-10.1-4.8-10.1-12.1
			c0-8,4.9-12.5,10.6-12.5c2.9,0,5.2,1,6.2,2.7h0.1V20.2H372z M364.7,40.8c0-0.4,0-0.9-0.1-1.3c-0.4-2-2-3.6-4.3-3.6
			c-3.3,0-5.1,3-5.1,6.7c0,4,2,6.5,5,6.5c2.1,0,3.8-1.4,4.2-3.5c0.1-0.5,0.2-1.1,0.2-1.7V40.8z"/>
		<path d="M383.4,30.8l3.5,11.6c0.4,1.4,0.9,3.1,1.2,4.4h0.1c0.3-1.3,0.7-3,1.1-4.4l2.9-11.6h7.9l-5.5,15.5
			c-3.4,9.4-5.6,13.1-8.3,15.5c-2.6,2.2-5.3,3-7.1,3.2l-1.5-6.2c0.9-0.1,2.1-0.6,3.2-1.3c1.1-0.6,2.3-1.7,3-2.9
			c0.2-0.3,0.4-0.7,0.4-1.1c0-0.2,0-0.6-0.3-1.2l-8.6-21.6H383.4z"/>
	</g>
</g>
</svg>
